<?xml version="1.0" encoding="UTF-8"?>
<!DOCTYPE svg PUBLIC "-//W3C//DTD SVG 1.1//EN" "http://www.w3.org/Graphics/SVG/1.1/DTD/svg11.dtd">
<svg xmlns="http://www.w3.org/2000/svg" version="1.1" width="500px" height="500px" style="shape-rendering:geometricPrecision; text-rendering:geometricPrecision; image-rendering:optimizeQuality; fill-rule:evenodd; clip-rule:evenodd" xmlns:xlink="http://www.w3.org/1999/xlink">
<g><path style="opacity:1" fill="#f9faf9" d="M 70.5,5.5 C 71.8333,6.16667 71.8333,6.16667 70.5,5.5 Z"/></g>
<g><path style="opacity:1" fill="#f9faf9" d="M 141.5,11.5 C 142.833,12.1667 142.833,12.1667 141.5,11.5 Z"/></g>
<g><path style="opacity:1" fill="#f9faf9" d="M 439.5,16.5 C 440.833,17.1667 440.833,17.1667 439.5,16.5 Z"/></g>
<g><path style="opacity:1" fill="#f9faf9" d="M 483.5,17.5 C 484.833,18.1667 484.833,18.1667 483.5,17.5 Z"/></g>
<g><path style="opacity:1" fill="#f9faf9" d="M 348.5,31.5 C 349.833,32.1667 349.833,32.1667 348.5,31.5 Z"/></g>
<g><path style="opacity:1" fill="#f9faf9" d="M 357.5,32.5 C 358.833,33.1667 358.833,33.1667 357.5,32.5 Z"/></g>
<g><path style="opacity:1" fill="#f9faf9" d="M 470.5,33.5 C 471.833,34.1667 471.833,34.1667 470.5,33.5 Z"/></g>
<g><path style="opacity:1" fill="#f9faf9" d="M 361.5,34.5 C 362.833,35.1667 362.833,35.1667 361.5,34.5 Z"/></g>
<g><path style="opacity:1" fill="#f9faf9" d="M 138.5,38.5 C 139.833,39.1667 139.833,39.1667 138.5,38.5 Z"/></g>
<g><path style="opacity:1" fill="#f9faf9" d="M 378.5,58.5 C 379.833,59.1667 379.833,59.1667 378.5,58.5 Z"/></g>
<g><path style="opacity:1" fill="#f9faf9" d="M 298.5,59.5 C 299.833,60.1667 299.833,60.1667 298.5,59.5 Z"/></g>
<g><path style="opacity:1" fill="#f9faf9" d="M 15.5,60.5 C 16.8333,61.1667 16.8333,61.1667 15.5,60.5 Z"/></g>
<g><path style="opacity:1" fill="#f9faf9" d="M 295.5,60.5 C 296.833,61.1667 296.833,61.1667 295.5,60.5 Z"/></g>
<g><path style="opacity:1" fill="#f9faf9" d="M 213.5,61.5 C 214.833,62.1667 214.833,62.1667 213.5,61.5 Z"/></g>
<g><path style="opacity:1" fill="#f9faf9" d="M 257.5,61.5 C 258.833,62.1667 258.833,62.1667 257.5,61.5 Z"/></g>
<g><path style="opacity:1" fill="#f9faf9" d="M 481.5,66.5 C 482.833,67.1667 482.833,67.1667 481.5,66.5 Z"/></g>
<g><path style="opacity:1" fill="#f9faf9" d="M 467.5,75.5 C 468.833,76.1667 468.833,76.1667 467.5,75.5 Z"/></g>
<g><path style="opacity:1" fill="#f9faf9" d="M 464.5,78.5 C 465.833,79.1667 465.833,79.1667 464.5,78.5 Z"/></g>
<g><path style="opacity:1" fill="#f9faf9" d="M 14.5,82.5 C 15.8333,83.1667 15.8333,83.1667 14.5,82.5 Z"/></g>
<g><path style="opacity:1" fill="#f9faf9" d="M 219.5,84.5 C 220.833,85.1667 220.833,85.1667 219.5,84.5 Z"/></g>
<g><path style="opacity:1" fill="#f9faf9" d="M 89.5,97.5 C 90.8333,98.1667 90.8333,98.1667 89.5,97.5 Z"/></g>
<g><path style="opacity:1" fill="#f9faf9" d="M 120.5,105.5 C 121.833,106.167 121.833,106.167 120.5,105.5 Z"/></g>
<g><path style="opacity:1" fill="#7aab1a" d="M 283.5,139.5 C 282.448,135.348 281.614,131.015 281,126.5C 278.538,126.395 277.371,124.729 277.5,121.5C 279.167,121.5 280.833,121.5 282.5,121.5C 282.683,119.064 282.016,116.897 280.5,115C 281.591,112.936 281.758,110.769 281,108.5C 279.028,107.695 277.528,106.361 276.5,104.5C 275.117,106.32 274.117,108.32 273.5,110.5C 264.038,109.208 254.705,109.208 245.5,110.5C 245.167,110.5 244.833,110.5 244.5,110.5C 243.167,110.5 241.833,110.5 240.5,110.5C 240.365,112.554 241.032,114.221 242.5,115.5C 241.504,115.414 240.671,115.748 240,116.5C 238.908,113.956 238.241,111.289 238,108.5C 237.308,109.025 236.808,109.692 236.5,110.5C 236.376,122.684 236.709,134.85 237.5,147C 244.733,148.133 252.066,148.633 259.5,148.5C 266.879,148.466 274.213,148.133 281.5,147.5C 266.202,149.484 250.536,150.151 234.5,149.5C 234.667,134.83 234.5,120.163 234,105.5C 233.617,104.944 233.117,104.611 232.5,104.5C 230.152,101.474 227.152,99.1402 223.5,97.5C 224.852,96.1038 226.519,95.4371 228.5,95.5C 241.952,95.6771 255.286,95.6771 268.5,95.5C 276.474,95.9837 281.641,99.9837 284,107.5C 284.572,118.179 284.405,128.845 283.5,139.5 Z M 262.5,128.5 C 262.5,129.167 262.833,129.5 263.5,129.5C 260.742,130.818 257.576,131.485 254,131.5C 250.05,131.593 246.216,131.093 242.5,130C 249.05,128.58 255.716,128.08 262.5,128.5 Z M 272.5,121.5 C 262.833,122.833 253.167,122.833 243.5,121.5C 252.634,119.926 261.968,119.426 271.5,120C 272.056,120.383 272.389,120.883 272.5,121.5 Z M 244.5,110.5 C 244.833,110.5 245.167,110.5 245.5,110.5C 253.386,110.481 261.386,110.647 269.5,111C 270.938,111.219 272.271,111.719 273.5,112.5C 263.5,113.833 253.5,113.833 243.5,112.5C 243.863,111.817 244.196,111.15 244.5,110.5 Z M 243.5,137.5 C 247.555,137.176 251.555,137.509 255.5,138.5C 251.893,139.489 248.226,139.823 244.5,139.5C 243.662,139.158 243.328,138.492 243.5,137.5 Z"/></g>
<g><path style="opacity:1" fill="#f9faf9" d="M 440.5,113.5 C 441.833,114.167 441.833,114.167 440.5,113.5 Z"/></g>
<g><path style="opacity:1" fill="#f9faf9" d="M 121.5,119.5 C 122.833,120.167 122.833,120.167 121.5,119.5 Z"/></g>
<g><path style="opacity:1" fill="#f9faf9" d="M 355.5,126.5 C 356.833,127.167 356.833,127.167 355.5,126.5 Z"/></g>
<g><path style="opacity:1" fill="#76ae10" d="M 283.5,139.5 C 284.686,140.961 284.686,142.295 283.5,143.5C 283.631,142.761 283.464,142.094 283,141.5C 282.809,143.708 282.309,145.708 281.5,147.5C 274.213,148.133 266.879,148.466 259.5,148.5C 252.066,148.633 244.733,148.133 237.5,147C 236.709,134.85 236.376,122.684 236.5,110.5C 236.808,109.692 237.308,109.025 238,108.5C 238.241,111.289 238.908,113.956 240,116.5C 240.671,115.748 241.504,115.414 242.5,115.5C 250.5,115.933 258.5,116.433 266.5,117C 257.204,118.182 247.87,118.682 238.5,118.5C 238.982,121.451 240.648,123.618 243.5,125C 241.46,127.185 240.126,129.685 239.5,132.5C 244.801,133.177 250.134,133.677 255.5,134C 251.141,134.697 247.141,135.863 243.5,137.5C 243.328,138.492 243.662,139.158 244.5,139.5C 248.615,141.968 252.949,142.135 257.5,140C 258.833,138.667 258.833,137.333 257.5,136C 259.419,134.066 260.919,134.233 262,136.5C 263.652,135.932 265.318,134.599 267,132.5C 267.507,131.004 267.007,129.837 265.5,129C 264.563,128.308 263.897,128.475 263.5,129.5C 262.833,129.5 262.5,129.167 262.5,128.5C 262.389,127.883 262.056,127.383 261.5,127C 257.313,126.929 253.313,126.262 249.5,125C 258.167,124.667 266.833,124.333 275.5,124C 275.833,123.667 276.167,123.333 276.5,123C 274.717,121.933 274.217,120.433 275,118.5C 275.795,116.099 276.962,113.932 278.5,112C 276.846,111.392 275.179,110.892 273.5,110.5C 274.117,108.32 275.117,106.32 276.5,104.5C 277.528,106.361 279.028,107.695 281,108.5C 281.758,110.769 281.591,112.936 280.5,115C 282.016,116.897 282.683,119.064 282.5,121.5C 280.833,121.5 279.167,121.5 277.5,121.5C 277.371,124.729 278.538,126.395 281,126.5C 281.614,131.015 282.448,135.348 283.5,139.5 Z M 262.5,128.5 C 262.5,129.167 262.833,129.5 263.5,129.5C 260.742,130.818 257.576,131.485 254,131.5C 250.05,131.593 246.216,131.093 242.5,130C 249.05,128.58 255.716,128.08 262.5,128.5 Z M 272.5,121.5 C 262.833,122.833 253.167,122.833 243.5,121.5C 252.634,119.926 261.968,119.426 271.5,120C 272.056,120.383 272.389,120.883 272.5,121.5 Z M 244.5,110.5 C 244.833,110.5 245.167,110.5 245.5,110.5C 253.386,110.481 261.386,110.647 269.5,111C 270.938,111.219 272.271,111.719 273.5,112.5C 263.5,113.833 253.5,113.833 243.5,112.5C 243.863,111.817 244.196,111.15 244.5,110.5 Z M 243.5,137.5 C 247.555,137.176 251.555,137.509 255.5,138.5C 251.893,139.489 248.226,139.823 244.5,139.5C 243.662,139.158 243.328,138.492 243.5,137.5 Z"/></g>
<g><path style="opacity:1" fill="#f9faf9" d="M 421.5,132.5 C 422.833,133.167 422.833,133.167 421.5,132.5 Z"/></g>
<g><path style="opacity:1" fill="#8bb23c" d="M 245.5,110.5 C 254.705,109.208 264.038,109.208 273.5,110.5C 275.179,110.892 276.846,111.392 278.5,112C 276.962,113.932 275.795,116.099 275,118.5C 274.217,120.433 274.717,121.933 276.5,123C 276.167,123.333 275.833,123.667 275.5,124C 266.833,124.333 258.167,124.667 249.5,125C 253.313,126.262 257.313,126.929 261.5,127C 262.056,127.383 262.389,127.883 262.5,128.5C 255.716,128.08 249.05,128.58 242.5,130C 246.216,131.093 250.05,131.593 254,131.5C 257.576,131.485 260.742,130.818 263.5,129.5C 263.897,128.475 264.563,128.308 265.5,129C 267.007,129.837 267.507,131.004 267,132.5C 265.318,134.599 263.652,135.932 262,136.5C 260.919,134.233 259.419,134.066 257.5,136C 258.833,137.333 258.833,138.667 257.5,140C 252.949,142.135 248.615,141.968 244.5,139.5C 248.226,139.823 251.893,139.489 255.5,138.5C 251.555,137.509 247.555,137.176 243.5,137.5C 247.141,135.863 251.141,134.697 255.5,134C 250.134,133.677 244.801,133.177 239.5,132.5C 240.126,129.685 241.46,127.185 243.5,125C 240.648,123.618 238.982,121.451 238.5,118.5C 247.87,118.682 257.204,118.182 266.5,117C 258.5,116.433 250.5,115.933 242.5,115.5C 241.032,114.221 240.365,112.554 240.5,110.5C 241.833,110.5 243.167,110.5 244.5,110.5C 244.196,111.15 243.863,111.817 243.5,112.5C 253.5,113.833 263.5,113.833 273.5,112.5C 272.271,111.719 270.938,111.219 269.5,111C 261.386,110.647 253.386,110.481 245.5,110.5 Z M 262.5,128.5 C 262.5,129.167 262.833,129.5 263.5,129.5C 260.742,130.818 257.576,131.485 254,131.5C 250.05,131.593 246.216,131.093 242.5,130C 249.05,128.58 255.716,128.08 262.5,128.5 Z M 272.5,121.5 C 262.833,122.833 253.167,122.833 243.5,121.5C 252.634,119.926 261.968,119.426 271.5,120C 272.056,120.383 272.389,120.883 272.5,121.5 Z M 244.5,110.5 C 244.833,110.5 245.167,110.5 245.5,110.5C 253.386,110.481 261.386,110.647 269.5,111C 270.938,111.219 272.271,111.719 273.5,112.5C 263.5,113.833 253.5,113.833 243.5,112.5C 243.863,111.817 244.196,111.15 244.5,110.5 Z"/></g>
<g><path style="opacity:1" fill="#c8e0a3" d="M 243.5,121.5 C 253.167,122.833 262.833,122.833 272.5,121.5C 273.043,121.56 273.376,121.893 273.5,122.5C 268.5,122.833 263.5,123.167 258.5,123.5C 253.119,123.494 248.119,122.828 243.5,121.5 Z"/></g>
<g><path style="opacity:1" fill="#f9faf9" d="M 145.5,138.5 C 146.833,139.167 146.833,139.167 145.5,138.5 Z"/></g>
<g><path style="opacity:1" fill="#f9faf9" d="M 416.5,147.5 C 417.833,148.167 417.833,148.167 416.5,147.5 Z"/></g>
<g><path style="opacity:1" fill="#94af59" d="M 232.5,104.5 C 233.117,104.611 233.617,104.944 234,105.5C 234.5,120.163 234.667,134.83 234.5,149.5C 250.536,150.151 266.202,149.484 281.5,147.5C 282.309,145.708 282.809,143.708 283,141.5C 283.464,142.094 283.631,142.761 283.5,143.5C 283.5,145.833 283.5,148.167 283.5,150.5C 266.833,150.5 250.167,150.5 233.5,150.5C 233.786,135.131 233.453,119.798 232.5,104.5 Z"/></g>
<g><path style="opacity:1" fill="#f9faf9" d="M 463.5,155.5 C 464.833,156.167 464.833,156.167 463.5,155.5 Z"/></g>
<g><path style="opacity:1" fill="#f9faf9" d="M 332.5,158.5 C 333.833,159.167 333.833,159.167 332.5,158.5 Z"/></g>
<g><path style="opacity:1" fill="#303b47" d="M 233.5,156.5 C 235.582,156.624 237.082,157.624 238,159.5C 240.135,157.722 242.635,157.055 245.5,157.5C 245.666,162.511 245.499,167.511 245,172.5C 243.301,173.406 241.467,173.739 239.5,173.5C 238.365,159.03 237.698,159.03 237.5,173.5C 234.921,173.917 232.754,173.25 231,171.5C 230.567,166.184 231.4,161.184 233.5,156.5 Z"/></g>
<g><path style="opacity:1" fill="#242e3c" d="M 247.5,157.5 C 249.5,157.5 251.5,157.5 253.5,157.5C 253.5,162.833 253.5,168.167 253.5,173.5C 251.5,173.5 249.5,173.5 247.5,173.5C 247.5,168.167 247.5,162.833 247.5,157.5 Z"/></g>
<g><path style="opacity:1" fill="#f9faf9" d="M 228.5,163.5 C 229.833,164.167 229.833,164.167 228.5,163.5 Z"/></g>
<g><path style="opacity:1" fill="#232d3b" d="M 264.5,164.5 C 263.659,162.621 263.325,160.621 263.5,158.5C 268.488,158.375 273.488,158.041 278.5,157.5C 278.5,162.833 278.5,168.167 278.5,173.5C 272.993,173.663 271.326,171.163 273.5,166C 272.863,163.755 272.03,161.588 271,159.5C 270.501,164.155 270.334,168.821 270.5,173.5C 268.712,173.785 267.045,173.452 265.5,172.5C 264.607,169.916 264.274,167.249 264.5,164.5 Z"/></g>
<g><path style="opacity:1" fill="#f9faf9" d="M 356.5,164.5 C 357.833,165.167 357.833,165.167 356.5,164.5 Z"/></g>
<g><path style="opacity:1" fill="#f9faf9" d="M 29.5,165.5 C 30.8333,166.167 30.8333,166.167 29.5,165.5 Z"/></g>
<g><path style="opacity:1" fill="#f9faf9" d="M 75.5,166.5 C 76.8333,167.167 76.8333,167.167 75.5,166.5 Z"/></g>
<g><path style="opacity:1" fill="#72787d" d="M 263.5,158.5 C 263.325,160.621 263.659,162.621 264.5,164.5C 263.833,167.167 263.167,169.833 262.5,172.5C 260.735,173.461 258.735,173.795 256.5,173.5C 256.5,168.167 256.5,162.833 256.5,157.5C 259.059,157.198 261.393,157.532 263.5,158.5 Z"/></g>
<g><path style="opacity:1" fill="#1a2734" d="M 262.5,172.5 C 260.833,172.5 259.167,172.5 257.5,172.5C 257.5,167.833 257.5,163.167 257.5,158.5C 259.167,158.5 260.833,158.5 262.5,158.5C 262.5,163.167 262.5,167.833 262.5,172.5 Z"/></g>
<g><path style="opacity:1" fill="#2a3542" d="M 184.5,156.5 C 187.605,157.428 190.605,157.761 193.5,157.5C 194.833,169.833 194.833,182.167 193.5,194.5C 190.583,195.066 187.583,195.066 184.5,194.5C 184.5,181.833 184.5,169.167 184.5,156.5 Z"/></g>
<g><path style="opacity:1" fill="#333c49" d="M 160.5,156.5 C 162.5,156.5 164.5,156.5 166.5,156.5C 167.056,168.415 167.222,180.415 167,192.5C 164.917,195.145 162.417,195.811 159.5,194.5C 159.268,186.671 158.935,178.504 158.5,170C 158.563,165.248 159.229,160.748 160.5,156.5 Z"/></g>
<g><path style="opacity:1" fill="#f9faf9" d="M 375.5,168.5 C 376.833,169.167 376.833,169.167 375.5,168.5 Z"/></g>
<g><path style="opacity:1" fill="#f9faf9" d="M 142.5,170.5 C 143.833,171.167 143.833,171.167 142.5,170.5 Z"/></g>
<g><path style="opacity:1" fill="#3d4752" d="M 283.5,156.5 C 284.708,157.234 286.041,157.567 287.5,157.5C 287.666,162.511 287.499,167.511 287,172.5C 284.959,173.423 282.792,173.756 280.5,173.5C 280.5,168.167 280.5,162.833 280.5,157.5C 281.791,157.737 282.791,157.404 283.5,156.5 Z"/></g>
<g><path style="opacity:1" fill="#1d2839" d="M 315.5,221.5 C 314.566,222.568 314.232,223.901 314.5,225.5C 313.127,225.343 311.793,225.51 310.5,226C 310.957,226.414 311.291,226.914 311.5,227.5C 276.173,228.5 240.84,228.833 205.5,228.5C 204.542,228.047 203.708,227.381 203,226.5C 203.543,210.145 204.71,193.811 206.5,177.5C 207.461,175.735 207.795,173.735 207.5,171.5C 209.446,171.193 211.113,171.193 212.5,171.5C 210.009,172.541 210.009,173.374 212.5,174C 211.878,175.569 211.544,177.236 211.5,179C 211.965,181.603 212.632,184.103 213.5,186.5C 214.752,187.968 216.752,188.968 219.5,189.5C 217.143,193.228 218.476,195.228 223.5,195.5C 223.5,194.167 223.5,192.833 223.5,191.5C 232.424,192.023 241.091,192.023 249.5,191.5C 249.197,195.44 247.364,198.44 244,200.5C 242.779,199.728 241.779,198.728 241,197.5C 240,198.167 239,198.833 238,199.5C 234.333,199.167 230.667,198.833 227,198.5C 226.481,199.516 225.647,200.182 224.5,200.5C 222.59,199.452 220.756,199.452 219,200.5C 215.866,198.271 212.366,197.271 208.5,197.5C 208.64,199.124 207.973,200.29 206.5,201C 207.967,202.098 208.801,203.598 209,205.5C 210.804,202.206 213.304,201.706 216.5,204C 216.167,204.333 215.833,204.667 215.5,205C 216.991,207.097 217.991,209.43 218.5,212C 215.95,216.122 217.116,219.955 222,223.5C 223.943,221.285 225.609,221.285 227,223.5C 228.113,222.24 228.28,221.073 227.5,220C 228.5,219.333 229.5,219.333 230.5,220C 229.549,220.718 229.383,221.551 230,222.5C 231.182,219.29 233.015,218.79 235.5,221C 234.5,221.333 233.5,221.667 232.5,222C 235.916,222.893 239.083,222.393 242,220.5C 244.04,224.446 246.04,224.446 248,220.5C 248.249,221.624 248.749,222.624 249.5,223.5C 250.7,222.469 252.034,221.635 253.5,221C 252.692,220.692 252.025,220.192 251.5,219.5C 253.029,213.644 254.029,207.644 254.5,201.5C 255.242,203.108 255.409,204.775 255,206.5C 256.94,205.306 258.773,205.306 260.5,206.5C 258.955,207.452 257.288,207.785 255.5,207.5C 255.207,213.372 254.874,219.039 254.5,224.5C 257.598,225.755 263.431,225.755 272,224.5C 274.369,223.073 274.869,221.239 273.5,219C 275.119,218.764 276.119,217.931 276.5,216.5C 276.833,216.5 277.167,216.5 277.5,216.5C 277.66,220.236 278.493,220.236 280,216.5C 278.73,222.97 281.23,224.803 287.5,222C 285.709,221.585 284.376,220.585 283.5,219C 284.742,218.689 285.742,219.189 286.5,220.5C 293.075,219.366 293.075,218.532 286.5,218C 290.025,217.821 293.359,217.321 296.5,216.5C 297.496,216.586 298.329,216.252 299,215.5C 300.036,210.574 299.536,205.907 297.5,201.5C 297.846,200.304 298.346,200.304 299,201.5C 299.886,197.928 301.053,198.095 302.5,202C 301.978,202.95 301.311,203.784 300.5,204.5C 301.274,205.711 302.107,205.711 303,204.5C 304.835,206.449 306.001,208.783 306.5,211.5C 306.793,207.807 308.127,204.64 310.5,202C 309.953,201.075 309.287,200.242 308.5,199.5C 306.942,204.694 305.942,204.694 305.5,199.5C 304.448,199.649 303.448,199.483 302.5,199C 303.926,196.289 303.592,193.789 301.5,191.5C 300.117,194.076 299.283,193.742 299,190.5C 298.667,190.833 298.333,191.167 298,191.5C 297.722,190.584 297.222,189.918 296.5,189.5C 296.5,189.167 296.5,188.833 296.5,188.5C 298,186.491 297.5,185.158 295,184.5C 293.829,185.34 292.662,186.173 291.5,187C 288.167,187.333 284.833,187.667 281.5,188C 281,188.5 280.5,189 280,189.5C 278.203,188.001 276.369,186.501 274.5,185C 278.12,183.774 281.786,183.274 285.5,183.5C 286.682,185.645 288.182,185.645 290,183.5C 290.333,183.833 290.667,184.167 291,184.5C 293.473,183.88 295.973,183.214 298.5,182.5C 298.137,181.817 297.804,181.15 297.5,180.5C 297.444,170.114 296.778,159.78 295.5,149.5C 292.5,149.5 289.5,149.5 286.5,149.5C 286.038,144.578 286.038,139.578 286.5,134.5C 292.176,134.334 297.843,134.501 303.5,135C 305.667,135.833 307.167,137.333 308,139.5C 310.438,166.689 312.938,194.023 315.5,221.5 Z M 266.5,189.5 C 270.167,189.5 273.833,189.5 277.5,189.5C 277.5,192.5 277.5,195.5 277.5,198.5C 277.5,198.833 277.5,199.167 277.5,199.5C 273.833,199.5 270.167,199.5 266.5,199.5C 266.5,196.167 266.5,192.833 266.5,189.5 Z M 285.5,199.5 C 285.5,196.167 285.5,192.833 285.5,189.5C 288.833,189.5 292.167,189.5 295.5,189.5C 295.5,192.833 295.5,196.167 295.5,199.5C 292.167,199.5 288.833,199.5 285.5,199.5 Z M 277.5,205.5 C 277.5,208.833 277.5,212.167 277.5,215.5C 273.833,215.5 270.167,215.5 266.5,215.5C 266.5,212.167 266.5,208.833 266.5,205.5C 270.167,205.5 273.833,205.5 277.5,205.5 Z M 285.5,205.5 C 288.833,205.5 292.167,205.5 295.5,205.5C 295.5,208.833 295.5,212.167 295.5,215.5C 292.167,215.5 288.833,215.5 285.5,215.5C 285.5,212.167 285.5,208.833 285.5,205.5 Z M 222.5,202.5 C 232.582,202.193 242.582,202.526 252.5,203.5C 252.797,207.767 252.464,211.934 251.5,216C 241.833,216.667 232.167,216.667 222.5,216C 221.194,211.501 221.194,207.001 222.5,202.5 Z"/></g>
<g><path style="opacity:1" fill="#b2b6bb" d="M 176.5,157.5 C 177.542,156.209 178.708,156.209 180,157.5C 180.5,169.829 180.667,182.162 180.5,194.5C 177.167,194.5 173.833,194.5 170.5,194.5C 170.171,181.989 170.505,169.655 171.5,157.5C 171.5,169.5 171.5,181.5 171.5,193.5C 174.167,193.5 176.833,193.5 179.5,193.5C 179.832,181.814 179.499,170.148 178.5,158.5C 177.817,158.137 177.15,157.804 176.5,157.5 Z"/></g>
<g><path style="opacity:1" fill="#1b2635" d="M 171.5,157.5 C 173.167,157.5 174.833,157.5 176.5,157.5C 177.15,157.804 177.817,158.137 178.5,158.5C 179.499,170.148 179.832,181.814 179.5,193.5C 176.833,193.5 174.167,193.5 171.5,193.5C 171.5,181.5 171.5,169.5 171.5,157.5 Z"/></g>
<g><path style="opacity:1" fill="#f9faf9" d="M 381.5,176.5 C 382.833,177.167 382.833,177.167 381.5,176.5 Z"/></g>
<g><path style="opacity:1" fill="#313945" d="M 198.5,157.5 C 200.5,157.5 202.5,157.5 204.5,157.5C 203.358,169.82 202.358,182.154 201.5,194.5C 200.5,194.5 199.5,194.5 198.5,194.5C 198.5,182.167 198.5,169.833 198.5,157.5 Z"/></g>
<g><path style="opacity:1" fill="#f9faf9" d="M 412.5,189.5 C 413.833,190.167 413.833,190.167 412.5,189.5 Z"/></g>
<g><path style="opacity:1" fill="#1f2b39" d="M 297.5,180.5 C 297.804,181.15 298.137,181.817 298.5,182.5C 295.973,183.214 293.473,183.88 291,184.5C 290.667,184.167 290.333,183.833 290,183.5C 288.182,185.645 286.682,185.645 285.5,183.5C 281.786,183.274 278.12,183.774 274.5,185C 276.369,186.501 278.203,188.001 280,189.5C 280.5,189 281,188.5 281.5,188C 284.833,187.667 288.167,187.333 291.5,187C 292.662,186.173 293.829,185.34 295,184.5C 297.5,185.158 298,186.491 296.5,188.5C 292.5,188.5 288.5,188.5 284.5,188.5C 284.185,192.371 284.518,196.038 285.5,199.5C 288.962,200.482 292.629,200.815 296.5,200.5C 296.5,196.833 296.5,193.167 296.5,189.5C 297.222,189.918 297.722,190.584 298,191.5C 298.333,191.167 298.667,190.833 299,190.5C 299.283,193.742 300.117,194.076 301.5,191.5C 303.592,193.789 303.926,196.289 302.5,199C 303.448,199.483 304.448,199.649 305.5,199.5C 305.942,204.694 306.942,204.694 308.5,199.5C 309.287,200.242 309.953,201.075 310.5,202C 308.127,204.64 306.793,207.807 306.5,211.5C 306.001,208.783 304.835,206.449 303,204.5C 302.107,205.711 301.274,205.711 300.5,204.5C 301.311,203.784 301.978,202.95 302.5,202C 301.053,198.095 299.886,197.928 299,201.5C 298.346,200.304 297.846,200.304 297.5,201.5C 299.536,205.907 300.036,210.574 299,215.5C 298.329,216.252 297.496,216.586 296.5,216.5C 293.359,217.321 290.025,217.821 286.5,218C 293.075,218.532 293.075,219.366 286.5,220.5C 285.742,219.189 284.742,218.689 283.5,219C 284.376,220.585 285.709,221.585 287.5,222C 281.23,224.803 278.73,222.97 280,216.5C 278.493,220.236 277.66,220.236 277.5,216.5C 278.833,212.833 278.833,209.167 277.5,205.5C 277.561,203.408 278.561,201.908 280.5,201C 279.551,200.383 278.718,200.549 278,201.5C 277.536,200.906 277.369,200.239 277.5,199.5C 277.5,199.167 277.5,198.833 277.5,198.5C 278.479,195.375 278.813,192.042 278.5,188.5C 274.298,188.183 270.298,188.517 266.5,189.5C 266.5,192.833 266.5,196.167 266.5,199.5C 265.325,199.719 264.325,199.386 263.5,198.5C 263.616,193.824 263.783,189.157 264,184.5C 261.127,185.686 258.293,187.019 255.5,188.5C 243.518,189.499 231.518,189.832 219.5,189.5C 216.752,188.968 214.752,187.968 213.5,186.5C 212.632,184.103 211.965,181.603 211.5,179C 211.544,177.236 211.878,175.569 212.5,174C 210.009,173.374 210.009,172.541 212.5,171.5C 211.113,171.193 209.446,171.193 207.5,171.5C 207.795,173.735 207.461,175.735 206.5,177.5C 207.294,164.268 208.461,151.268 210,138.5C 213.344,135.042 217.511,133.709 222.5,134.5C 225.167,134.667 227.833,134.833 230.5,135C 231.843,139.534 231.676,144.367 230,149.5C 227.667,150.833 225.333,150.833 223,149.5C 221.704,157.426 220.871,165.426 220.5,173.5C 220.532,175.759 220.866,177.925 221.5,180C 246.831,180.5 272.164,180.667 297.5,180.5 Z M 266.5,189.5 C 270.167,189.5 273.833,189.5 277.5,189.5C 277.5,192.5 277.5,195.5 277.5,198.5C 277.5,198.833 277.5,199.167 277.5,199.5C 273.833,199.5 270.167,199.5 266.5,199.5C 266.5,196.167 266.5,192.833 266.5,189.5 Z M 285.5,199.5 C 288.833,199.5 292.167,199.5 295.5,199.5C 295.5,196.167 295.5,192.833 295.5,189.5C 292.167,189.5 288.833,189.5 285.5,189.5C 285.5,192.833 285.5,196.167 285.5,199.5 Z M 285.5,205.5 C 288.833,205.5 292.167,205.5 295.5,205.5C 295.5,208.833 295.5,212.167 295.5,215.5C 292.167,215.5 288.833,215.5 285.5,215.5C 285.5,212.167 285.5,208.833 285.5,205.5 Z"/></g>
<g><path style="opacity:1" fill="#f9faf9" d="M 41.5,192.5 C 42.8333,193.167 42.8333,193.167 41.5,192.5 Z"/></g>
<g><path style="opacity:1" fill="#bac2c9" d="M 296.5,188.5 C 296.5,188.833 296.5,189.167 296.5,189.5C 296.5,193.167 296.5,196.833 296.5,200.5C 292.629,200.815 288.962,200.482 285.5,199.5C 284.518,196.038 284.185,192.371 284.5,188.5C 288.5,188.5 292.5,188.5 296.5,188.5 Z M 285.5,199.5 C 288.833,199.5 292.167,199.5 295.5,199.5C 295.5,196.167 295.5,192.833 295.5,189.5C 292.167,189.5 288.833,189.5 285.5,189.5C 285.5,192.833 285.5,196.167 285.5,199.5 Z"/></g>
<g><path style="opacity:1" fill="#9ba0a7" d="M 266.5,189.5 C 270.298,188.517 274.298,188.183 278.5,188.5C 278.813,192.042 278.479,195.375 277.5,198.5C 277.5,195.5 277.5,192.5 277.5,189.5C 273.833,189.5 270.167,189.5 266.5,189.5 Z"/></g>
<g><path style="opacity:1" fill="#f9faf9" d="M 404.5,200.5 C 405.833,201.167 405.833,201.167 404.5,200.5 Z"/></g>
<g><path style="opacity:1" fill="#f9faf9" d="M 318.5,201.5 C 319.833,202.167 319.833,202.167 318.5,201.5 Z"/></g>
<g><path style="opacity:1" fill="#f9faf9" d="M 346.5,204.5 C 347.833,205.167 347.833,205.167 346.5,204.5 Z"/></g>
<g><path style="opacity:1" fill="#f9faf9" d="M 470.5,205.5 C 471.833,206.167 471.833,206.167 470.5,205.5 Z"/></g>
<g><path style="opacity:1" fill="#cdcfdc" d="M 285.5,205.5 C 285.5,208.833 285.5,212.167 285.5,215.5C 288.833,215.5 292.167,215.5 295.5,215.5C 295.5,212.167 295.5,208.833 295.5,205.5C 296.482,208.962 296.815,212.629 296.5,216.5C 292.5,216.5 288.5,216.5 284.5,216.5C 284.185,212.629 284.518,208.962 285.5,205.5 Z M 285.5,205.5 C 288.833,205.5 292.167,205.5 295.5,205.5C 295.5,208.833 295.5,212.167 295.5,215.5C 292.167,215.5 288.833,215.5 285.5,215.5C 285.5,212.167 285.5,208.833 285.5,205.5 Z"/></g>
<g><path style="opacity:1" fill="#1e2c39" d="M 266.5,199.5 C 270.167,199.5 273.833,199.5 277.5,199.5C 277.369,200.239 277.536,200.906 278,201.5C 278.718,200.549 279.551,200.383 280.5,201C 278.561,201.908 277.561,203.408 277.5,205.5C 273.833,205.5 270.167,205.5 266.5,205.5C 266.5,208.833 266.5,212.167 266.5,215.5C 269.625,216.479 272.958,216.813 276.5,216.5C 276.119,217.931 275.119,218.764 273.5,219C 274.869,221.239 274.369,223.073 272,224.5C 263.431,225.755 257.598,225.755 254.5,224.5C 254.874,219.039 255.207,213.372 255.5,207.5C 257.288,207.785 258.955,207.452 260.5,206.5C 258.773,205.306 256.94,205.306 255,206.5C 255.409,204.775 255.242,203.108 254.5,201.5C 254.029,207.644 253.029,213.644 251.5,219.5C 252.025,220.192 252.692,220.692 253.5,221C 252.034,221.635 250.7,222.469 249.5,223.5C 248.749,222.624 248.249,221.624 248,220.5C 246.04,224.446 244.04,224.446 242,220.5C 239.083,222.393 235.916,222.893 232.5,222C 233.5,221.667 234.5,221.333 235.5,221C 233.015,218.79 231.182,219.29 230,222.5C 229.383,221.551 229.549,220.718 230.5,220C 229.5,219.333 228.5,219.333 227.5,220C 228.28,221.073 228.113,222.24 227,223.5C 225.609,221.285 223.943,221.285 222,223.5C 217.116,219.955 215.95,216.122 218.5,212C 217.991,209.43 216.991,207.097 215.5,205C 215.833,204.667 216.167,204.333 216.5,204C 213.304,201.706 210.804,202.206 209,205.5C 208.801,203.598 207.967,202.098 206.5,201C 207.973,200.29 208.64,199.124 208.5,197.5C 212.366,197.271 215.866,198.271 219,200.5C 220.756,199.452 222.59,199.452 224.5,200.5C 225.647,200.182 226.481,199.516 227,198.5C 230.667,198.833 234.333,199.167 238,199.5C 239,198.833 240,198.167 241,197.5C 241.779,198.728 242.779,199.728 244,200.5C 247.364,198.44 249.197,195.44 249.5,191.5C 241.091,192.023 232.424,192.023 223.5,191.5C 223.5,192.833 223.5,194.167 223.5,195.5C 218.476,195.228 217.143,193.228 219.5,189.5C 231.518,189.832 243.518,189.499 255.5,188.5C 258.293,187.019 261.127,185.686 264,184.5C 263.783,189.157 263.616,193.824 263.5,198.5C 264.325,199.386 265.325,199.719 266.5,199.5 Z M 222.5,202.5 C 232.582,202.193 242.582,202.526 252.5,203.5C 252.797,207.767 252.464,211.934 251.5,216C 241.833,216.667 232.167,216.667 222.5,216C 221.194,211.501 221.194,207.001 222.5,202.5 Z"/></g>
<g><path style="opacity:1" fill="#8c969c" d="M 222.5,202.5 C 227.322,201.834 232.322,201.501 237.5,201.5C 242.881,201.506 247.881,202.172 252.5,203.5C 242.582,202.526 232.582,202.193 222.5,202.5 Z"/></g>
<g><path style="opacity:1" fill="#f9faf9" d="M -0.5,210.5 C 0.833333,211.167 0.833333,211.167 -0.5,210.5 Z"/></g>
<g><path style="opacity:1" fill="#b7bcdd" d="M 277.5,205.5 C 278.833,209.167 278.833,212.833 277.5,216.5C 277.167,216.5 276.833,216.5 276.5,216.5C 272.958,216.813 269.625,216.479 266.5,215.5C 270.167,215.5 273.833,215.5 277.5,215.5C 277.5,212.167 277.5,208.833 277.5,205.5 Z"/></g>
<g><path style="opacity:1" fill="#3f4a52" d="M 315.5,221.5 C 316.041,224.652 315.041,227.152 312.5,229C 276.664,229.831 240.998,229.664 205.5,228.5C 240.84,228.833 276.173,228.5 311.5,227.5C 311.291,226.914 310.957,226.414 310.5,226C 311.793,225.51 313.127,225.343 314.5,225.5C 314.232,223.901 314.566,222.568 315.5,221.5 Z"/></g>
<g><path style="opacity:1" fill="#f9faf9" d="M 159.5,230.5 C 160.833,231.167 160.833,231.167 159.5,230.5 Z"/></g>
<g><path style="opacity:1" fill="#68717b" d="M 202.5,234.5 C 239.996,233.502 277.663,233.168 315.5,233.5C 316.136,242.565 315.47,251.231 313.5,259.5C 314.469,251.252 314.802,242.918 314.5,234.5C 277.167,234.5 239.833,234.5 202.5,234.5 Z"/></g>
<g><path style="opacity:1" fill="#222e3f" d="M 202.5,234.5 C 239.833,234.5 277.167,234.5 314.5,234.5C 314.802,242.918 314.469,251.252 313.5,259.5C 277.336,260.664 241.002,260.831 204.5,260C 202.548,251.77 201.882,243.27 202.5,234.5 Z M 250.5,243.5 C 256.176,243.334 261.843,243.501 267.5,244C 269.658,245.312 269.991,246.978 268.5,249C 262.167,249.667 255.833,249.667 249.5,249C 246.898,246.688 247.232,244.855 250.5,243.5 Z"/></g>
<g><path style="opacity:1" fill="#f9faf9" d="M 148.5,251.5 C 149.833,252.167 149.833,252.167 148.5,251.5 Z"/></g>
<g><path style="opacity:1" fill="#f9faf9" d="M 197.5,251.5 C 198.833,252.167 198.833,252.167 197.5,251.5 Z"/></g>
<g><path style="opacity:1" fill="#f9faf9" d="M 179.5,270.5 C 180.833,271.167 180.833,271.167 179.5,270.5 Z"/></g>
<g><path style="opacity:1" fill="#f9faf9" d="M 349.5,271.5 C 350.833,272.167 350.833,272.167 349.5,271.5 Z"/></g>
<g><path style="opacity:1" fill="#f9faf9" d="M 148.5,282.5 C 149.833,283.167 149.833,283.167 148.5,282.5 Z"/></g>
<g><path style="opacity:1" fill="#f9faf9" d="M 490.5,282.5 C 491.833,283.167 491.833,283.167 490.5,282.5 Z"/></g>
<g><path style="opacity:1" fill="#f9faf9" d="M 408.5,284.5 C 409.833,285.167 409.833,285.167 408.5,284.5 Z"/></g>
<g><path style="opacity:1" fill="#f9faf9" d="M 436.5,301.5 C 437.833,302.167 437.833,302.167 436.5,301.5 Z"/></g>
<g><path style="opacity:1" fill="#87af37" d="M 363.5,322.5 C 357.947,321.133 352.613,319.966 347.5,319C 349.021,315.983 348.021,314.15 344.5,313.5C 345.421,311.244 347.088,310.244 349.5,310.5C 349.5,309.5 349.5,308.5 349.5,307.5C 352.91,307.543 356.243,307.043 359.5,306C 361.014,304.561 361.347,303.061 360.5,301.5C 356.541,300.34 352.541,300.173 348.5,301C 344.719,302.618 341.719,305.118 339.5,308.5C 336.98,316.105 338.98,322.105 345.5,326.5C 336.451,321.845 334.284,314.845 339,305.5C 343.637,300.839 349.304,298.505 356,298.5C 360.679,298.962 365.013,300.295 369,302.5C 369.667,305.5 369.667,308.5 369,311.5C 366.456,312.119 363.956,311.619 361.5,310C 357.909,309.211 354.409,309.378 351,310.5C 350.192,312.579 350.359,314.579 351.5,316.5C 355.656,318.321 359.656,320.321 363.5,322.5 Z"/></g>
<g><path style="opacity:1" fill="#f9faf9" d="M 20.5,307.5 C 21.8333,308.167 21.8333,308.167 20.5,307.5 Z"/></g>
<g><path style="opacity:1" fill="#999fa5" d="M 129.5,300.5 C 129.5,316.167 129.5,331.833 129.5,347.5C 132.385,347.194 135.052,347.527 137.5,348.5C 134.5,348.5 131.5,348.5 128.5,348.5C 128.17,332.325 128.504,316.325 129.5,300.5 Z"/></g>
<g><path style="opacity:1" fill="#7cae22" d="M 328.5,305.5 C 330.969,308.144 333.302,310.977 335.5,314C 335.54,320.024 335.374,326.19 335,332.5C 327.565,348.305 315.732,353.139 299.5,347C 290.858,340.881 286.692,332.714 287,322.5C 285.439,325.783 283.273,328.617 280.5,331C 274.784,333.617 268.784,335.117 262.5,335.5C 262.418,338.333 262.252,341.333 262,344.5C 261.755,346.663 260.755,348.33 259,349.5C 255.924,348.712 252.758,348.212 249.5,348C 248.944,347.617 248.611,347.117 248.5,346.5C 249.286,339.162 249.953,331.662 250.5,324C 250.392,322.319 249.725,321.152 248.5,320.5C 248.188,313.578 248.521,306.744 249.5,300C 258.499,298.69 267.499,299.023 276.5,301C 281.291,303.627 285.291,307.127 288.5,311.5C 297.193,299.659 308.527,296.159 322.5,301C 325.106,301.792 327.106,303.292 328.5,305.5 Z M 262.5,309.5 C 272.808,308.481 276.142,312.648 272.5,322C 264.248,327.02 260.581,324.687 261.5,315C 261.581,313.076 261.914,311.243 262.5,309.5 Z M 320.5,314.5 C 321.109,318.605 321.775,322.605 322.5,326.5C 321.85,328.435 321.517,330.435 321.5,332.5C 313.457,340.789 306.623,339.789 301,329.5C 300.092,324.317 300.592,319.317 302.5,314.5C 305.589,309.879 309.923,308.379 315.5,310C 317.618,311.049 319.284,312.549 320.5,314.5 Z"/></g>
<g><path style="opacity:1" fill="#76ad12" d="M 328.5,305.5 C 329.69,309.961 331.19,314.294 333,318.5C 334.523,326.906 332.69,334.406 327.5,341C 326.234,341.309 325.067,341.809 324,342.5C 323.805,340.793 323.805,339.126 324,337.5C 322.786,339.049 321.286,340.215 319.5,341C 321.032,341.7 322.032,342.866 322.5,344.5C 319.023,345.386 315.523,346.386 312,347.5C 311.5,347.333 311,347.167 310.5,347C 314.036,345.145 314.036,343.979 310.5,343.5C 313.418,340.694 316.751,338.527 320.5,337C 321.38,335.644 321.714,334.144 321.5,332.5C 321.517,330.435 321.85,328.435 322.5,326.5C 323.139,325.903 323.472,325.07 323.5,324C 323.368,320.324 322.368,317.158 320.5,314.5C 319.284,312.549 317.618,311.049 315.5,310C 309.923,308.379 305.589,309.879 302.5,314.5C 301.504,314.414 300.671,314.748 300,315.5C 297.799,322.625 298.133,329.625 301,336.5C 303.799,337.773 305.633,339.773 306.5,342.5C 301.697,344.066 297.697,342.899 294.5,339C 294.833,338 295.167,337 295.5,336C 293.929,334.25 292.096,332.084 290,329.5C 288.474,321.162 290.641,314.162 296.5,308.5C 297.906,309.668 299.072,309.335 300,307.5C 300.402,306.128 300.902,304.795 301.5,303.5C 308.142,302.336 314.808,302.169 321.5,303C 324.06,303.384 326.394,304.217 328.5,305.5 Z M 320.5,314.5 C 321.109,318.605 321.775,322.605 322.5,326.5C 321.85,328.435 321.517,330.435 321.5,332.5C 313.457,340.789 306.623,339.789 301,329.5C 300.092,324.317 300.592,319.317 302.5,314.5C 305.589,309.879 309.923,308.379 315.5,310C 317.618,311.049 319.284,312.549 320.5,314.5 Z"/></g>
<g><path style="opacity:1" fill="#1b2738" d="M 129.5,300.5 C 130.167,300.5 130.833,300.5 131.5,300.5C 134.187,300.336 136.854,300.503 139.5,301C 138.167,301.667 136.833,302.333 135.5,303C 137.422,304.46 138.089,306.127 137.5,308C 138.126,308.75 138.626,309.584 139,310.5C 139.217,315.553 139.717,320.553 140.5,325.5C 141.79,326.408 143.123,326.241 144.5,325C 146.833,324.333 149.167,324.333 151.5,325C 150.516,327.732 151.516,329.732 154.5,331C 153,331.5 151.5,332 150,332.5C 146.668,332.25 143.168,332.25 139.5,332.5C 139.5,337.833 139.5,343.167 139.5,348.5C 138.833,348.5 138.167,348.5 137.5,348.5C 135.052,347.527 132.385,347.194 129.5,347.5C 129.5,331.833 129.5,316.167 129.5,300.5 Z"/></g>
<g><path style="opacity:1" fill="#c1e094" d="M 320.5,314.5 C 322.368,317.158 323.368,320.324 323.5,324C 323.472,325.07 323.139,325.903 322.5,326.5C 321.775,322.605 321.109,318.605 320.5,314.5 Z"/></g>
<g><path style="opacity:1" fill="#2b3645" d="M 131.5,300.5 C 140.054,299.112 148.72,299.279 157.5,301C 165.855,305.802 168.855,312.802 166.5,322C 164.205,325.297 161.538,328.297 158.5,331C 162.043,336.586 165.709,342.086 169.5,347.5C 164.869,348.662 160.202,348.828 155.5,348C 152.251,343.503 149.251,338.837 146.5,334C 144.527,333.505 142.527,333.338 140.5,333.5C 140.821,338.695 140.487,343.695 139.5,348.5C 139.5,343.167 139.5,337.833 139.5,332.5C 143.168,332.25 146.668,332.25 150,332.5C 151.5,332 153,331.5 154.5,331C 151.516,329.732 150.516,327.732 151.5,325C 149.167,324.333 146.833,324.333 144.5,325C 143.123,326.241 141.79,326.408 140.5,325.5C 139.717,320.553 139.217,315.553 139,310.5C 138.626,309.584 138.126,308.75 137.5,308C 138.089,306.127 137.422,304.46 135.5,303C 136.833,302.333 138.167,301.667 139.5,301C 136.854,300.503 134.187,300.336 131.5,300.5 Z M 140.5,309.5 C 144.182,309.335 147.848,309.501 151.5,310C 155.753,314.663 155.42,318.997 150.5,323C 147.183,323.498 143.85,323.665 140.5,323.5C 140.5,318.833 140.5,314.167 140.5,309.5 Z"/></g>
<g><path style="opacity:1" fill="#7bae1a" d="M 363.5,322.5 C 374.571,329.118 375.237,336.952 365.5,346C 362.794,347.548 359.96,348.714 357,349.5C 353.249,349.027 349.416,348.861 345.5,349C 342.391,348.356 339.557,347.189 337,345.5C 333.925,340.429 335.092,336.762 340.5,334.5C 344.214,336.767 348.214,338.434 352.5,339.5C 354.179,338.218 356.013,337.218 358,336.5C 358.684,335.216 358.517,334.049 357.5,333C 353.475,330.727 349.475,328.561 345.5,326.5C 338.98,322.105 336.98,316.105 339.5,308.5C 341.719,305.118 344.719,302.618 348.5,301C 352.541,300.173 356.541,300.34 360.5,301.5C 361.347,303.061 361.014,304.561 359.5,306C 356.243,307.043 352.91,307.543 349.5,307.5C 349.5,308.5 349.5,309.5 349.5,310.5C 347.088,310.244 345.421,311.244 344.5,313.5C 348.021,314.15 349.021,315.983 347.5,319C 352.613,319.966 357.947,321.133 363.5,322.5 Z"/></g>
<g><path style="opacity:1" fill="#aac385" d="M 248.5,320.5 C 249.725,321.152 250.392,322.319 250.5,324C 249.953,331.662 249.286,339.162 248.5,346.5C 248.5,337.833 248.5,329.167 248.5,320.5 Z"/></g>
<g><path style="opacity:1" fill="#f9faf9" d="M 68.5,334.5 C 69.8333,335.167 69.8333,335.167 68.5,334.5 Z"/></g>
<g><path style="opacity:1" fill="#232f3e" d="M 206.5,333.5 C 206.5,332.833 206.5,332.167 206.5,331.5C 207.536,319.632 214.036,313.298 226,312.5C 238.346,313.845 244.846,320.678 245.5,333C 239.092,349.021 228.092,353.021 212.5,345C 209.312,341.79 207.312,337.957 206.5,333.5 Z M 222.5,322.5 C 226.955,321.622 230.289,323.122 232.5,327C 232.455,329.636 232.288,332.47 232,335.5C 226.762,341.187 222.429,340.521 219,333.5C 217.882,329.077 219.049,325.41 222.5,322.5 Z"/></g>
<g><path style="opacity:1" fill="#242f3f" d="M 206.5,331.5 C 206.5,332.167 206.5,332.833 206.5,333.5C 202.264,345.794 193.597,350.627 180.5,348C 169.622,343.732 165.789,335.898 169,324.5C 172.81,317.259 178.81,313.259 187,312.5C 198.701,313.703 205.201,320.036 206.5,331.5 Z M 184.5,322.5 C 188.317,321.826 191.15,323.159 193,326.5C 193.824,329.882 193.657,333.216 192.5,336.5C 188.748,340.284 184.914,340.284 181,336.5C 178.748,330.84 179.915,326.173 184.5,322.5 Z"/></g>
<g><path style="opacity:1" fill="#f9faf9" d="M 285.5,341.5 C 286.833,342.167 286.833,342.167 285.5,341.5 Z"/></g>
<g><path style="opacity:1" fill="#f9faf9" d="M 270.5,345.5 C 271.833,346.167 271.833,346.167 270.5,345.5 Z"/></g>
<g><path style="opacity:1" fill="#f9faf9" d="M 356.5,363.5 C 357.833,364.167 357.833,364.167 356.5,363.5 Z"/></g>
<g><path style="opacity:1" fill="#f9faf9" d="M 48.5,365.5 C 49.8333,366.167 49.8333,366.167 48.5,365.5 Z"/></g>
<g><path style="opacity:1" fill="#f9faf9" d="M 323.5,372.5 C 324.833,373.167 324.833,373.167 323.5,372.5 Z"/></g>
<g><path style="opacity:1" fill="#f9faf9" d="M 419.5,373.5 C 420.833,374.167 420.833,374.167 419.5,373.5 Z"/></g>
<g><path style="opacity:1" fill="#f9faf9" d="M 339.5,384.5 C 340.833,385.167 340.833,385.167 339.5,384.5 Z"/></g>
<g><path style="opacity:1" fill="#f9faf9" d="M 174.5,385.5 C 175.833,386.167 175.833,386.167 174.5,385.5 Z"/></g>
<g><path style="opacity:1" fill="#f9faf9" d="M 459.5,403.5 C 460.833,404.167 460.833,404.167 459.5,403.5 Z"/></g>
<g><path style="opacity:1" fill="#f9faf9" d="M 129.5,405.5 C 130.833,406.167 130.833,406.167 129.5,405.5 Z"/></g>
<g><path style="opacity:1" fill="#f9faf9" d="M 420.5,405.5 C 421.833,406.167 421.833,406.167 420.5,405.5 Z"/></g>
<g><path style="opacity:1" fill="#f9faf9" d="M 260.5,406.5 C 261.833,407.167 261.833,407.167 260.5,406.5 Z"/></g>
<g><path style="opacity:1" fill="#f9faf9" d="M 115.5,413.5 C 116.833,414.167 116.833,414.167 115.5,413.5 Z"/></g>
<g><path style="opacity:1" fill="#f9faf9" d="M 84.5,424.5 C 85.8333,425.167 85.8333,425.167 84.5,424.5 Z"/></g>
<g><path style="opacity:1" fill="#f9faf9" d="M 139.5,424.5 C 140.833,425.167 140.833,425.167 139.5,424.5 Z"/></g>
<g><path style="opacity:1" fill="#f9faf9" d="M 411.5,435.5 C 412.833,436.167 412.833,436.167 411.5,435.5 Z"/></g>
<g><path style="opacity:1" fill="#f9faf9" d="M 125.5,446.5 C 126.833,447.167 126.833,447.167 125.5,446.5 Z"/></g>
<g><path style="opacity:1" fill="#f9faf9" d="M 25.5,452.5 C 26.8333,453.167 26.8333,453.167 25.5,452.5 Z"/></g>
<g><path style="opacity:1" fill="#f9faf9" d="M 205.5,452.5 C 206.833,453.167 206.833,453.167 205.5,452.5 Z"/></g>
<g><path style="opacity:1" fill="#f9faf9" d="M 197.5,455.5 C 198.833,456.167 198.833,456.167 197.5,455.5 Z"/></g>
<g><path style="opacity:1" fill="#f9faf9" d="M 477.5,471.5 C 478.833,472.167 478.833,472.167 477.5,471.5 Z"/></g>
<g><path style="opacity:1" fill="#f9faf9" d="M 183.5,477.5 C 184.833,478.167 184.833,478.167 183.5,477.5 Z"/></g>
<g><path style="opacity:1" fill="#f9faf9" d="M 259.5,478.5 C 260.833,479.167 260.833,479.167 259.5,478.5 Z"/></g>
<g><path style="opacity:1" fill="#f9faf9" d="M 485.5,482.5 C 486.833,483.167 486.833,483.167 485.5,482.5 Z"/></g>
<g><path style="opacity:1" fill="#f9faf9" d="M 407.5,487.5 C 408.833,488.167 408.833,488.167 407.5,487.5 Z"/></g>
<g><path style="opacity:1" fill="#f9faf9" d="M 379.5,488.5 C 380.833,489.167 380.833,489.167 379.5,488.5 Z"/></g>
<g><path style="opacity:1" fill="#f9faf9" d="M 335.5,491.5 C 336.833,492.167 336.833,492.167 335.5,491.5 Z"/></g>
<g><path style="opacity:1" fill="#f9faf9" d="M 203.5,493.5 C 204.833,494.167 204.833,494.167 203.5,493.5 Z"/></g>
<g><path style="opacity:1" fill="#f9faf9" d="M 295.5,493.5 C 296.833,494.167 296.833,494.167 295.5,493.5 Z"/></g>
<g><path style="opacity:1" fill="#f9faf9" d="M 439.5,493.5 C 440.833,494.167 440.833,494.167 439.5,493.5 Z"/></g>
<g><path style="opacity:1" fill="#f9faf9" d="M 271.5,496.5 C 272.833,497.167 272.833,497.167 271.5,496.5 Z"/></g>
<g><path style="opacity:1" fill="#f9faf9" d="M 83.5,497.5 C 84.8333,498.167 84.8333,498.167 83.5,497.5 Z"/></g>
<g><path style="opacity:1" fill="#f9faf9" d="M 359.5,497.5 C 360.833,498.167 360.833,498.167 359.5,497.5 Z"/></g>
<g><path style="opacity:1" fill="#f9faf9" d="M 180.5,499.5 C 179.833,498.167 179.833,498.167 180.5,499.5 Z"/></g>
</svg>
